<svg xmlns="http://www.w3.org/2000/svg" xmlns:xlink="http://www.w3.org/1999/xlink" width="212" height="42" viewBox="0 0 212 42">
    <defs>
        <path id="a" d="M0 26.606h83.779V0H0z"/>
    </defs>
    <g fill="none" fill-rule="evenodd" transform="translate(1 1)">
        <rect width="210" height="40" stroke="#000" rx="6"/>
        <g transform="translate(78.429 7.143)">
            <path fill="#000" d="M6.302 3.388c0 .816-.245 1.466-.736 1.951-.559.577-1.285.865-2.179.865-.855 0-1.584-.292-2.182-.878-.6-.584-.898-1.31-.898-2.175 0-.866.299-1.59.898-2.176C1.803.39 2.532.098 3.387.098c.424 0 .832.082 1.217.244.386.164.696.381.928.653l-.522.515c-.392-.462-.933-.694-1.623-.694-.624 0-1.164.216-1.62.649-.455.433-.682.994-.682 1.686 0 .69.227 1.253.683 1.685.455.434.995.65 1.62.65.662 0 1.213-.218 1.656-.653.286-.284.452-.678.496-1.184H3.387v-.703H6.26c.028.153.042.3.042.442"/>
            <path stroke="#FFF" stroke-width=".2" d="M6.302 3.388c0 .816-.245 1.466-.736 1.951-.559.577-1.285.865-2.179.865-.855 0-1.584-.292-2.182-.878-.6-.584-.898-1.31-.898-2.175 0-.866.299-1.59.898-2.176C1.803.39 2.532.098 3.387.098c.424 0 .832.082 1.217.244.386.164.696.381.928.653l-.522.515c-.392-.462-.933-.694-1.623-.694-.624 0-1.164.216-1.62.649-.455.433-.682.994-.682 1.686 0 .69.227 1.253.683 1.685.455.434.995.65 1.62.65.662 0 1.213-.218 1.656-.653.286-.284.452-.678.496-1.184H3.387v-.703H6.26c.028.153.042.3.042.442z"/>
            <path fill="#000" d="M10.857.947h-2.7v1.852h2.434v.703H8.157v1.853h2.7v.719H7.395V.229h3.462z"/>
            <path stroke="#FFF" stroke-width=".2" d="M10.857.947h-2.7v1.852h2.434v.703H8.157v1.853h2.7v.719H7.395V.229h3.462z"/>
            <path fill="#000" d="M14.07 6.073h-.762V.946H11.65V.228h4.075v.718H14.07z"/>
            <path stroke="#FFF" stroke-width=".2" d="M14.07 6.073h-.762V.946H11.65V.228h4.075v.718H14.07z"/>
            <mask id="b" fill="#fff">
                <use xlink:href="#a"/>
            </mask>
            <path fill="#000" d="M18.674 6.074h.762V.228h-.762z" mask="url(#b)"/>
            <path stroke="#FFF" stroke-width=".2" d="M18.674 6.074h.762V.228h-.762z" mask="url(#b)"/>
            <path fill="#000" d="M22.815 6.073h-.762V.946h-1.656V.228h4.074v.718h-1.656z" mask="url(#b)"/>
            <path stroke="#FFF" stroke-width=".2" d="M22.815 6.073h-.762V.946h-1.656V.228h4.074v.718h-1.656z" mask="url(#b)"/>
            <path fill="#000" d="M28.4 4.829a2.19 2.19 0 0 0 1.61.656c.635 0 1.172-.218 1.611-.656.439-.439.66-.998.66-1.678 0-.68-.221-1.24-.66-1.678a2.193 2.193 0 0 0-1.61-.657c-.636 0-1.173.22-1.611.657-.438.438-.659.998-.659 1.678 0 .68.22 1.24.659 1.678m3.784.489c-.583.591-1.307.886-2.174.886-.866 0-1.59-.295-2.173-.886-.583-.59-.873-1.313-.873-2.167 0-.854.29-1.577.873-2.168.582-.59 1.307-.885 2.173-.885.862 0 1.584.296 2.17.89.586.593.878 1.314.878 2.163 0 .854-.291 1.576-.874 2.167" mask="url(#b)"/>
            <path stroke="#FFF" stroke-width=".2" d="M28.4 4.829a2.19 2.19 0 0 0 1.61.656c.635 0 1.172-.218 1.611-.656.439-.439.66-.998.66-1.678 0-.68-.221-1.24-.66-1.678a2.193 2.193 0 0 0-1.61-.657c-.636 0-1.173.22-1.611.657-.438.438-.659.998-.659 1.678 0 .68.22 1.24.659 1.678zm3.784.489c-.583.591-1.307.886-2.174.886-.866 0-1.59-.295-2.173-.886-.583-.59-.873-1.313-.873-2.167 0-.854.29-1.577.873-2.168.582-.59 1.307-.885 2.173-.885.862 0 1.584.296 2.17.89.586.593.878 1.314.878 2.163 0 .854-.291 1.576-.874 2.167z" mask="url(#b)"/>
            <path fill="#000" d="M34.127 6.073V.228h.927l2.882 4.547h.033l-.033-1.126V.229h.763v5.844h-.796L34.89 1.306h-.033l.033 1.127v3.64z" mask="url(#b)"/>
            <path stroke="#FFF" stroke-width=".2" d="M34.127 6.073V.228h.927l2.882 4.547h.033l-.033-1.126V.229h.763v5.844h-.796L34.89 1.306h-.033l.033 1.127v3.64z" mask="url(#b)"/>
            <path fill="#000" d="M65.12 22.635h1.843V10.456H65.12v12.179zm16.608-7.792l-2.113 5.28h-.064l-2.193-5.28h-1.986l3.29 7.38-1.876 4.105h1.923l5.07-11.485h-2.051zM71.27 21.252c-.603 0-1.445-.299-1.445-1.035 0-.94 1.048-1.3 1.954-1.3.81 0 1.192.173 1.684.407-.142 1.129-1.127 1.928-2.193 1.928zm.223-6.676c-1.335 0-2.718.581-3.29 1.865l1.637.674c.35-.674 1.002-.893 1.685-.893.953 0 1.924.564 1.938 1.566v.126c-.334-.188-1.048-.47-1.923-.47-1.764 0-3.56.956-3.56 2.742 0 1.63 1.446 2.68 3.068 2.68 1.24 0 1.923-.549 2.352-1.192h.063v.94h1.781v-4.669c0-2.162-1.637-3.369-3.751-3.369zm-11.395 1.75h-2.624v-4.174h2.624a2.124 2.124 0 0 1 2.16 2.086c0 .944-.783 2.088-2.16 2.088zm-.049-5.87h-4.418v12.179h1.843v-4.614h2.575c2.044 0 4.054-1.458 4.054-3.783 0-2.323-2.01-3.782-4.054-3.782zM35.955 21.254c-1.273 0-2.34-1.052-2.34-2.495 0-1.46 1.067-2.527 2.34-2.527 1.258 0 2.245 1.066 2.245 2.527 0 1.443-.987 2.495-2.245 2.495zm2.118-5.729h-.064c-.415-.486-1.21-.926-2.213-.926-2.101 0-4.028 1.822-4.028 4.16 0 2.322 1.927 4.127 4.028 4.127 1.003 0 1.798-.44 2.213-.942h.064v.596c0 1.586-.86 2.433-2.246 2.433-1.13 0-1.83-.8-2.116-1.475l-1.61.66c.462 1.098 1.689 2.448 3.726 2.448 2.167 0 3.997-1.256 3.997-4.317V14.85h-1.751v.675zm3.025 7.11h1.846V10.456h-1.846v12.179zm4.568-4.018a2.288 2.288 0 0 1 2.198-2.417c.732 0 1.353.362 1.56.88l-3.758 1.537zm5.732-1.381c-.35-.926-1.417-2.637-3.598-2.637-2.165 0-3.964 1.68-3.964 4.144 0 2.323 1.783 4.143 4.17 4.143 1.928 0 3.042-1.16 3.504-1.836l-1.433-.942c-.477.69-1.13 1.146-2.07 1.146s-1.608-.424-2.037-1.256l5.619-2.292-.19-.47zM6.623 15.87v1.758h4.267c-.127.988-.461 1.71-.971 2.212-.622.613-1.592 1.288-3.296 1.288a4.648 4.648 0 0 1-4.68-4.677 4.649 4.649 0 0 1 4.68-4.678c1.417 0 2.452.549 3.216 1.256l1.258-1.24c-1.066-1.004-2.484-1.774-4.474-1.774C3.025 10.016 0 12.905 0 16.452c0 3.546 3.025 6.434 6.623 6.434 1.942 0 3.408-.628 4.553-1.805 1.179-1.161 1.545-2.793 1.545-4.112a5.69 5.69 0 0 0-.095-1.098H6.623zm10.949 5.383c-1.274 0-2.373-1.036-2.373-2.511 0-1.491 1.099-2.511 2.373-2.511 1.274 0 2.372 1.02 2.372 2.511 0 1.475-1.098 2.51-2.372 2.51zm0-6.655c-2.325 0-4.219 1.743-4.219 4.144 0 2.386 1.894 4.143 4.219 4.143 2.324 0 4.219-1.757 4.219-4.143 0-2.401-1.895-4.144-4.22-4.144zm9.203 6.655c-1.274 0-2.372-1.036-2.372-2.511 0-1.491 1.098-2.511 2.372-2.511 1.274 0 2.372 1.02 2.372 2.511 0 1.475-1.098 2.51-2.372 2.51zm0-6.655c-2.324 0-4.219 1.743-4.219 4.144 0 2.386 1.895 4.143 4.22 4.143 2.324 0 4.219-1.757 4.219-4.143 0-2.401-1.895-4.144-4.22-4.144z" mask="url(#b)"/>
        </g>
        <path fill="#000" fill-rule="nonzero" d="M47.263 7.19c-.01.056-.015.117-.015.182v24.247c0 .284.128.479.33.55L60.57 19.861 47.264 7.19zm.48-.519c.205-.042.454.003.703.14l10.806 5.953 5.57 3.067-3.74 3.544-13.34-12.704zm16.417 16.61l-2.761 1.52-2.147 1.182-10.062 5.543 11.877-11.19 3.093 2.945zm.649-.357l.045-.024s4.752-2.619 5.385-2.966c.631-.348.57-.825.038-1.1-.416-.213-3.48-1.909-4.81-2.646l-3.886 3.662 3.228 3.074z"/>
    </g>
</svg>
