<svg xmlns="http://www.w3.org/2000/svg" width="194" height="178" viewBox="0 0 194 178">
    <path fill="#000" fill-rule="nonzero" d="M114.05 178l-9.05-9.05c35.45-30.925 52.042-50.535 52.042-76.179 0-10.56-4.525-18.102-15.084-18.102-11.314 0-27.907-15.084-27.907-36.203C114.05 17.347 132.153 0 151.008 0 173.636 0 194 14.33 194 49.78c0 59.584-37.712 95.788-79.95 128.22zm-105 0L0 168.95c36.203-31.679 52.042-50.535 52.042-75.425 0-11.313-4.525-18.856-15.084-18.856-11.314 0-27.907-15.084-27.907-36.203C9.05 17.347 27.153 0 46.008 0 68.636 0 89 14.33 89 49.78 89 109.364 51.288 145.568 9.05 178z" opacity=".05"/>
</svg>
